<?xml version="1.0" encoding="UTF-8"?>
<!DOCTYPE svg PUBLIC "-//W3C//DTD SVG 1.1//EN" "http://www.w3.org/Graphics/SVG/1.1/DTD/svg11.dtd">
<!-- Creator: CorelDRAW X8 -->
<svg xmlns="http://www.w3.org/2000/svg" xml:space="preserve" width="0.0916142in" height="0.0916142in" version="1.1" style="shape-rendering:geometricPrecision; text-rendering:geometricPrecision; image-rendering:optimizeQuality; fill-rule:evenodd; clip-rule:evenodd"
viewBox="0 0 91 91"
 xmlns:xlink="http://www.w3.org/1999/xlink"
 aria-hidden="true"
 focusable="false"
 data-prefix="fab"
 data-icon="twitter"
 role="img">
 <defs>
  <style type="text/css">
   <![CDATA[
    .str0 {stroke:#FEFEFE;stroke-width:3.31334}
    .fil0 {fill:none}
    .fil1 {fill:white}
   ]]>
  </style>
 </defs>
 <g id="Layer_x0020_1">
  <metadata id="CorelCorpID_0Corel-Layer"/>
  <path class="fil0 str0" d="M46 2c24,0 43,19 43,44 0,24 -19,43 -43,43 -25,0 -44,-19 -44,-43 0,-25 19,-44 44,-44z"/>
  <g id="_2861676286768">
   <path class="fil1" d="M61 38c0,0 0,0 0,1 0,10 -8,23 -23,23 -4,0 -9,-2 -12,-4 1,0 1,0 2,0 4,0 7,-1 10,-3 -4,0 -7,-3 -8,-6 1,0 1,0 2,0 1,0 1,0 2,0 -4,-1 -7,-4 -7,-8l0 0c2,0 3,1 4,1 -2,-2 -3,-4 -3,-7 0,-1 0,-3 1,-4 4,5 10,8 16,9 0,-1 0,-2 0,-2 0,-5 4,-8 8,-8 2,0 5,1 6,2 2,0 4,-1 5,-2 0,2 -2,4 -3,5 1,-1 3,-1 4,-2 -1,2 -2,3 -4,5l0 0z"/>
  </g>
 </g>
</svg>
